<?xml version="1.0" encoding="UTF-8" standalone="no"?>
<!DOCTYPE svg PUBLIC "-//W3C//DTD SVG 1.1//EN" "http://www.w3.org/Graphics/SVG/1.1/DTD/svg11.dtd">
<svg width="100%" height="100%" viewBox="0 0 1563 1563" version="1.1" xmlns="http://www.w3.org/2000/svg" xmlns:xlink="http://www.w3.org/1999/xlink" xml:space="preserve" xmlns:serif="http://www.serif.com/" style="fill-rule:evenodd;clip-rule:evenodd;stroke-linejoin:round;stroke-miterlimit:2;">
    <g transform="matrix(0.75,0,0,0.75,0,0)">
        <g id="icon" transform="matrix(0.966876,0,0,1.26925,34.8167,2375.25)">
            <rect x="-36.009" y="-1871.38" width="2154.71" height="1641.38" style="fill:none;"/>
            <g id="FF0A54" transform="matrix(1.03426,0,0,0.787865,-36.0095,-1871.38)">
                <rect x="0" y="0" width="2083.33" height="2083.33" style="fill:rgb(255,10,84);"/>
            </g>
            <g transform="matrix(1.54091,0,0,1.54091,-653.973,567.803)">
                <g opacity="0.97">
                    <g transform="matrix(1.03426,0,0,0.787865,17.711,-1870.32)">
                        <path d="M650.368,1369.89C674.904,1409.88 793.228,1490.34 831.802,1497.64C870.013,1504.86 874.913,1450.29 879.484,1424.55C884.95,1393.78 914.158,1312.9 947.115,1267.16C980.072,1221.42 1014.19,1186.33 1077.23,1150.12C1119.25,1125.98 1190.77,1118.28 1205.54,1089.88C1213.17,1075.22 1207.72,1049.05 1198.3,1027.78C1189.47,1007.86 1180.86,986.483 1165.86,979.76C1134.85,965.86 1068.46,984.769 1022.93,1000.42C969.675,1018.73 898.81,1049.7 846.307,1089.62C789.916,1132.5 717.245,1210.99 684.588,1257.7C662.185,1289.74 629.92,1336.57 650.368,1369.89Z" style="fill:white;"/>
                    </g>
                    <g transform="matrix(1.03426,0,0,0.761302,-34.6528,-1869.96)">
                        <path d="M643.241,862.904C648.296,912.629 754.567,1026.11 787.867,1060.06C800.837,1073.28 813.654,1085.29 843.043,1066.56C888.087,1037.86 969.232,969.312 999.438,954.812C1037.87,936.363 1090.27,895.162 1260.91,899.421C1333.36,901.23 1422.94,932.304 1487.39,946.984C1503.37,950.624 1512.63,951.403 1518.86,942.207C1528.78,927.567 1533.88,877.232 1535.22,841.017C1536.09,817.174 1531.49,757.186 1524.01,738.896C1519.48,727.808 1516.65,721.562 1504.7,716.92C1464.67,701.366 1394.79,687.321 1348.52,683.145C1271.29,676.175 1155.54,671.852 1060.3,684.512C961.807,697.606 827.05,731.976 757.54,761.708C710.754,781.72 638.187,813.179 643.241,862.904Z" style="fill:white;"/>
                    </g>
                </g>
            </g>
        </g>
    </g>
</svg>
